<svg width="100" height="100" viewBox="0 0 100 100" fill="none" xmlns="http://www.w3.org/2000/svg">
<circle cx="50" cy="50" r="48" stroke="white" stroke-width="4"/>
<path d="M38.5247 70.251L57.4831 27.9594C57.9772 26.8569 59.2716 26.3639 60.374 26.8581C61.3845 27.3111 61.8831 28.4364 61.5785 29.47L61.4753 29.749L42.517 72.0407C42.0228 73.1431 40.7285 73.6362 39.626 73.142C38.6155 72.689 38.1169 71.5636 38.4215 70.5301L38.5247 70.251ZM21.474 48.4532L33.8699 36.0574C34.7242 35.2031 36.1092 35.2031 36.9635 36.0574C37.7401 36.834 37.8107 38.0493 37.1753 38.9056L36.9635 39.151L26.1144 50L36.9635 60.8491C37.8177 61.7033 37.8177 63.0884 36.9635 63.9426C36.1869 64.7193 34.9716 64.7899 34.1152 64.1544L33.8699 63.9426L21.474 51.5468C20.6974 50.7702 20.6268 49.5549 21.2622 48.6986L21.474 48.4532ZM63.0365 36.0574C63.8132 35.2808 65.0284 35.2102 65.8848 35.8456L66.1301 36.0574L78.526 48.4532C79.3026 49.2298 79.3732 50.4451 78.7378 51.3015L78.526 51.5468L66.1301 63.9426C65.2759 64.7969 63.8908 64.7969 63.0365 63.9426C62.2599 63.166 62.1893 61.9508 62.8247 61.0944L63.0365 60.8491L73.8856 50L63.0365 39.151C62.1823 38.2967 62.1823 36.9117 63.0365 36.0574Z" fill="white"/>
</svg>
